<?xml version="1.0" encoding="UTF-8"?>
<!DOCTYPE svg PUBLIC "-//W3C//DTD SVG 1.1//EN" "http://www.w3.org/Graphics/SVG/1.1/DTD/svg11.dtd">
<!-- Creator: CorelDRAW -->
<svg xmlns="http://www.w3.org/2000/svg" xml:space="preserve" width="8.33333in" height="3.33333in" style="shape-rendering:geometricPrecision; text-rendering:geometricPrecision; image-rendering:optimizeQuality; fill-rule:evenodd; clip-rule:evenodd"
viewBox="0 0 8.33333 3.33333"
 xmlns:xlink="http://www.w3.org/1999/xlink">
 <defs>
  <style type="text/css">
   <![CDATA[
    .fil1 {fill:white}
    .fil0 {fill:white;fill-rule:nonzero}
   ]]>
  </style>
 </defs>
 <g id="Layer_x0020_1">
  <metadata id="CorelCorpID_0Corel-Layer"/>
  <polygon class="fil0" points="4.1406,1.48905 4.1406,0.658488 4.30605,0.658488 4.30605,0.998161 4.56574,0.658488 4.77393,0.658488 4.4737,1.05185 4.8068,1.48905 4.59861,1.48905 4.36961,1.18882 4.30605,1.271 4.30605,1.48905 4.1406,1.48905 "/>
  <path id="1" class="fil0" d="M5.18921 0.658488c0.0569764,0 0.110669,0.0109567 0.161071,0.0328701 0.0504055,0.0219173 0.0944173,0.051685 0.132035,0.0893031 0.0376181,0.0376181 0.0673858,0.0816299 0.0893031,0.132035 0.0219134,0.0504016 0.0328701,0.104094 0.0328701,0.161071 0,0.0569764 -0.0109567,0.110669 -0.0328701,0.161071 -0.0219173,0.0504055 -0.051685,0.0944173 -0.0893031,0.132035 -0.0376181,0.0376181 -0.0816299,0.0673858 -0.132035,0.0893031 -0.0504016,0.0219134 -0.104094,0.0328701 -0.161071,0.0328701 -0.0569764,0 -0.110669,-0.0109567 -0.161071,-0.0328701 -0.0504055,-0.0219173 -0.0944173,-0.051685 -0.132035,-0.0893031 -0.0376181,-0.0376181 -0.0673858,-0.0816299 -0.0893031,-0.132035 -0.0219134,-0.0504016 -0.0328701,-0.104094 -0.0328701,-0.161071 0,-0.0569764 0.0109567,-0.110669 0.0328701,-0.161071 0.0219173,-0.0504055 0.051685,-0.0944173 0.0893031,-0.132035 0.0376181,-0.0376181 0.0816299,-0.0673858 0.132035,-0.0893031 0.0504016,-0.0219134 0.104094,-0.0328701 0.161071,-0.0328701zm0 0.166551c-0.0343307,0 -0.0666575,0.0065748 -0.0969724,0.0197205 -0.030315,0.0131496 -0.0567953,0.0308661 -0.0794409,0.0531457 -0.0226417,0.0222795 -0.0405394,0.0485748 -0.053689,0.0788898 -0.0131496,0.030315 -0.0197244,0.0626378 -0.0197244,0.0969724 0,0.0343307 0.0065748,0.0666575 0.0197244,0.0969724 0.0131496,0.030315 0.0310472,0.0567953 0.053689,0.0794409 0.0226457,0.0226417 0.049126,0.0405394 0.0794409,0.053689 0.030315,0.0131496 0.0626417,0.0197244 0.0969724,0.0197244 0.0343346,0 0.0666575,-0.0065748 0.0969724,-0.0197244 0.030315,-0.0131496 0.0566102,-0.0310472 0.0788898,-0.053689 0.0222795,-0.0226457 0.0399961,-0.049126 0.0531457,-0.0794409 0.0131457,-0.030315 0.0197205,-0.0626417 0.0197205,-0.0969724 0,-0.0343346 -0.0065748,-0.0666575 -0.0197205,-0.0969724 -0.0131496,-0.030315 -0.0308661,-0.0566102 -0.0531457,-0.0788898 -0.0222795,-0.0222795 -0.0485748,-0.0399961 -0.0788898,-0.0531457 -0.030315,-0.0131457 -0.0626378,-0.0197205 -0.0969724,-0.0197205z"/>
  <polygon id="12" class="fil0" points="6.1918,1.48905 6.01319,1.48905 5.84664,1.07377 5.84664,1.48905 5.68119,1.48905 5.68119,0.658488 5.68119,0.658488 5.85979,0.658488 6.10304,1.26552 6.3452,0.658488 6.5238,0.658488 6.5238,0.658488 6.5238,1.48905 6.35835,1.48905 6.35835,1.07377 6.1918,1.48905 "/>
  <path id="123" class="fil0" d="M7.01578 0.658488c0.0569764,0 0.110669,0.0109567 0.161071,0.0328701 0.0504055,0.0219173 0.0944173,0.051685 0.132035,0.0893031 0.0376181,0.0376181 0.0673858,0.0816299 0.0893031,0.132035 0.0219134,0.0504016 0.0328701,0.104094 0.0328701,0.161071 0,0.0569764 -0.0109567,0.110669 -0.0328701,0.161071 -0.0219173,0.0504055 -0.051685,0.0944173 -0.0893031,0.132035 -0.0376181,0.0376181 -0.0816299,0.0673858 -0.132035,0.0893031 -0.0504016,0.0219134 -0.104094,0.0328701 -0.161071,0.0328701 -0.0569764,0 -0.110669,-0.0109567 -0.161071,-0.0328701 -0.0504055,-0.0219173 -0.0944173,-0.051685 -0.132035,-0.0893031 -0.0376181,-0.0376181 -0.0673858,-0.0816299 -0.0893031,-0.132035 -0.0219134,-0.0504016 -0.0328701,-0.104094 -0.0328701,-0.161071 0,-0.0569764 0.0109567,-0.110669 0.0328701,-0.161071 0.0219173,-0.0504055 0.051685,-0.0944173 0.0893031,-0.132035 0.0376181,-0.0376181 0.0816299,-0.0673858 0.132035,-0.0893031 0.0504016,-0.0219134 0.104094,-0.0328701 0.161071,-0.0328701zm0 0.166551c-0.0343307,0 -0.0666575,0.0065748 -0.0969724,0.0197205 -0.030315,0.0131496 -0.0567953,0.0308661 -0.0794409,0.0531457 -0.0226417,0.0222795 -0.0405394,0.0485748 -0.053689,0.0788898 -0.0131496,0.030315 -0.0197244,0.0626378 -0.0197244,0.0969724 0,0.0343307 0.0065748,0.0666575 0.0197244,0.0969724 0.0131496,0.030315 0.0310472,0.0567953 0.053689,0.0794409 0.0226457,0.0226417 0.049126,0.0405394 0.0794409,0.053689 0.030315,0.0131496 0.0626417,0.0197244 0.0969724,0.0197244 0.0343346,0 0.0666575,-0.0065748 0.0969724,-0.0197244 0.030315,-0.0131496 0.0566102,-0.0310472 0.0788898,-0.053689 0.0222795,-0.0226457 0.0399961,-0.049126 0.0531457,-0.0794409 0.0131457,-0.030315 0.0197205,-0.0626417 0.0197205,-0.0969724 0,-0.0343346 -0.0065748,-0.0666575 -0.0197205,-0.0969724 -0.0131496,-0.030315 -0.0308661,-0.0566102 -0.0531457,-0.0788898 -0.0222795,-0.0222795 -0.0485748,-0.0399961 -0.0788898,-0.0531457 -0.030315,-0.0131457 -0.0626378,-0.0197205 -0.0969724,-0.0197205z"/>
  <polygon id="1234" class="fil0" points="4.1406,2.65052 4.1406,1.81996 4.30605,1.81996 4.30605,2.48396 4.60847,2.48396 4.60847,2.65052 4.1406,2.65052 "/>
  <path id="12345" class="fil0" d="M5.44013 2.65052l-0.176413 0 -0.0843701 -0.232295 -0.255303 0 -0.0843701 0.232295 -0.176413 0 0.300228 -0.830559 0.176413 0 0.300228 0.830559 0 0zm-0.321047 -0.398843l-0.067937 -0.18737 -0.0668386 0.18737 0.134776 0 0 0z"/>
  <polygon id="123456" class="fil0" points="6.02087,2.37439 6.02087,1.81996 6.18632,1.81996 6.18632,2.65052 5.99347,2.65052 5.66037,2.09717 5.66037,2.65052 5.49492,2.65052 5.49492,1.81996 5.68886,1.81996 6.02087,2.37439 "/>
  <path id="1234567" class="fil0" d="M6.26302 2.65052l0 -0.830559 0.232295 0c0.0569764,0 0.110665,0.0109567 0.161071,0.0328701 0.0504016,0.0219173 0.0944134,0.051685 0.132035,0.0893031 0.0376181,0.0376181 0.0673858,0.0816299 0.0892992,0.132035 0.0219134,0.0504016 0.032874,0.104094 0.032874,0.161071 0,0.0569764 -0.0109606,0.110669 -0.032874,0.161071 -0.0219134,0.0504055 -0.0516811,0.0944173 -0.0892992,0.132035 -0.037622,0.0376181 -0.0816339,0.0673858 -0.132035,0.0893031 -0.0504055,0.0219134 -0.104094,0.0328701 -0.161071,0.0328701l-0.232295 0zm0.165453 -0.166551l0.0668425 0c0.0343307,0 0.0666535,-0.00638976 0.0969685,-0.0191732 0.030315,-0.0127835 0.0566142,-0.0305 0.0788937,-0.0531417 0.0222795,-0.0226457 0.0399921,-0.049126 0.0531417,-0.0794409 0.0131496,-0.030315 0.0197244,-0.0626417 0.0197244,-0.0969724 0,-0.0343346 -0.0065748,-0.0666575 -0.0197244,-0.0969724 -0.0131496,-0.030315 -0.0308622,-0.0566102 -0.0531417,-0.0788898 -0.0222795,-0.0222795 -0.0485787,-0.0399961 -0.0788937,-0.0531457 -0.030315,-0.0131457 -0.0626378,-0.0197205 -0.0969685,-0.0197205l-0.0668425 0 0 0.497457z"/>
  <rect class="fil1" x="3.47415" y="0.0907834" width="0.0266654" height="3.12743"/>
  <path class="fil1" d="M1.89095 0.664843c0.546575,0 0.989657,0.443083 0.989657,0.989657 0,0.546575 -0.443083,0.989657 -0.989657,0.989657 -0.546575,0 -0.989657,-0.443083 -0.989657,-0.989657 0,-0.546575 0.443083,-0.989657 0.989657,-0.989657zm0.312272 1.17021l0 -3.93701e-006 -0.0869252 -0.0869252c-0.0480079,-0.0480079 -0.0480079,-0.125843 0,-0.17385l0 -1.1811e-005 -7.87402e-006 7.87402e-006 0.0869331 -0.0869331 -3.93701e-006 0c0.0480118,-0.0480079 0.0480118,-0.12585 0,-0.173858 -0.0480079,-0.0480079 -0.125843,-0.0480079 -0.173854,0l-0.173854 0.173858 0 3.93701e-006 -0.0424685 0.0424685 0 -0.137433c0.000110236,-0.0316024 -0.0118898,-0.0632362 -0.0360039,-0.0873504 -0.0480079,-0.0480079 -0.125843,-0.0480079 -0.17385,0 -0.0241142,0.0241142 -0.0361142,0.055748 -0.0360079,0.0873504l0 0.520516c-0.00015748,0.0316732 0.0118386,0.0633937 0.0360039,0.087563 0.0480079,0.0480079 0.125843,0.0480079 0.17385,0 0.024063,-0.0240591 0.0360591,-0.0556102 0.0360079,-0.0871417l0 -0.120732 0.0424685 0.0424685 3.93701e-006 0 0.173858 0.173854c0.0480079,0.0480118 0.125843,0.0480118 0.17385,0 0.0480079,-0.0480079 0.0480079,-0.125843 0,-0.17385z"/>
 </g>
</svg>
