<?xml version="1.0" encoding="UTF-8"?>
<!DOCTYPE svg PUBLIC "-//W3C//DTD SVG 1.1//EN" "http://www.w3.org/Graphics/SVG/1.1/DTD/svg11.dtd">
<!-- Creator: CorelDRAW -->
<svg xmlns="http://www.w3.org/2000/svg" xml:space="preserve" width="2.13333in" height="2.13333in" style="shape-rendering:geometricPrecision; text-rendering:geometricPrecision; image-rendering:optimizeQuality; fill-rule:evenodd; clip-rule:evenodd"
viewBox="0 0 2.13333 2.13333"
 xmlns:xlink="http://www.w3.org/1999/xlink">
 <defs>
  <style type="text/css">
   <![CDATA[
    .fil0 {fill:white}
   ]]>
  </style>
 </defs>
 <g id="Layer_x0020_1">
  <metadata id="CorelCorpID_0Corel-Layer"/>
  <path class="fil0" d="M1.06667 0.0770079c0.546575,0 0.989657,0.443083 0.989657,0.989657 0,0.546575 -0.443083,0.989657 -0.989657,0.989657 -0.546575,0 -0.989657,-0.443083 -0.989657,-0.989657 0,-0.546575 0.443083,-0.989657 0.989657,-0.989657zm0.312272 1.17021l0 -3.93701e-006 -0.0869252 -0.0869252c-0.0480079,-0.0480079 -0.0480079,-0.125843 0,-0.17385l0 -1.1811e-005 -7.87402e-006 7.87402e-006 0.0869331 -0.0869331 -3.93701e-006 0c0.0480118,-0.0480079 0.0480118,-0.12585 0,-0.173858 -0.0480079,-0.0480079 -0.125843,-0.0480079 -0.173854,0l-0.173854 0.173858 0 3.93701e-006 -0.0424685 0.0424685 0 -0.137433c0.000110236,-0.0316024 -0.0118898,-0.0632362 -0.0360039,-0.0873504 -0.0480079,-0.0480079 -0.125843,-0.0480079 -0.17385,0 -0.0241142,0.0241142 -0.0361142,0.055748 -0.0360079,0.0873504l0 0.520516c-0.00015748,0.0316732 0.0118386,0.0633937 0.0360039,0.087563 0.0480079,0.0480079 0.125843,0.0480079 0.17385,0 0.024063,-0.0240591 0.0360591,-0.0556102 0.0360079,-0.0871417l0 -0.120732 0.0424685 0.0424685 3.93701e-006 0 0.173858 0.173854c0.0480079,0.0480118 0.125843,0.0480118 0.17385,0 0.0480079,-0.0480079 0.0480079,-0.125843 0,-0.17385z"/>
 </g>
</svg>
