<?xml version="1.0" encoding="UTF-8"?>
<!DOCTYPE svg PUBLIC "-//W3C//DTD SVG 1.1//EN" "http://www.w3.org/Graphics/SVG/1.1/DTD/svg11.dtd">
<!-- Creator: CorelDRAW -->
<svg xmlns="http://www.w3.org/2000/svg" xml:space="preserve" width="2.13333in" height="2.13333in" style="shape-rendering:geometricPrecision; text-rendering:geometricPrecision; image-rendering:optimizeQuality; fill-rule:evenodd; clip-rule:evenodd"
viewBox="0 0 2.13333 2.13333"
 xmlns:xlink="http://www.w3.org/1999/xlink">
 <defs>
  <style type="text/css">
   <![CDATA[
    .fil0 {fill:#B3B3B3}
   ]]>
  </style>
 </defs>
 <g id="Layer_x0020_1">
  <metadata id="CorelCorpID_0Corel-Layer"/>
  <path class="fil0" d="M0.751531 0.800315l0.405012 -0.233835c-0.00145276,-0.137378 0.0897283,-0.263638 0.228559,-0.300839 0.164469,-0.0440669 0.333516,0.0535315 0.377583,0.217996 0.0440669,0.164465 -0.0535315,0.333512 -0.218,0.377579 -0.0832717,0.022315 -0.167701,0.0082874 -0.236512,-0.0323268l-0.40502 0.233843c2.3622e-005,0.00202756 7.87402e-006,0.00405512 -1.1811e-005,0.00608268l0.404949 0.233795c0.0235394,-0.0138858 0.0493189,-0.0248622 0.0770079,-0.0322795 0.164472,-0.0440669 0.333516,0.0535315 0.377587,0.218 0.044063,0.164465 -0.0535315,0.333504 -0.218,0.377575 -0.164465,0.0440669 -0.333508,-0.0535315 -0.377579,-0.217992 -0.00741732,-0.027689 -0.0108071,-0.0555118 -0.0105512,-0.0828386l-0.404945 -0.233795c-0.0235433,0.0138858 -0.0493268,0.0248622 -0.0770157,0.0322835 -0.164465,0.0440669 -0.333512,-0.0535315 -0.377579,-0.218 -0.0440669,-0.164461 0.0535276,-0.333508 0.217996,-0.377579 0.0832756,-0.022311 0.167713,-0.0082874 0.23652,0.0323307z"/>
 </g>
</svg>
