<?xml version="1.0" encoding="UTF-8"?>
<!DOCTYPE svg PUBLIC "-//W3C//DTD SVG 1.1//EN" "http://www.w3.org/Graphics/SVG/1.1/DTD/svg11.dtd">
<!-- Creator: CorelDRAW -->
<svg xmlns="http://www.w3.org/2000/svg" xml:space="preserve" width="2.13333in" height="2.13333in" style="shape-rendering:geometricPrecision; text-rendering:geometricPrecision; image-rendering:optimizeQuality; fill-rule:evenodd; clip-rule:evenodd"
viewBox="0 0 2.13333 2.13333"
 xmlns:xlink="http://www.w3.org/1999/xlink">
 <defs>
  <style type="text/css">
   <![CDATA[
    .fil0 {fill:#B3B3B3}
   ]]>
  </style>
 </defs>
 <g id="Layer_x0020_1">
  <metadata id="CorelCorpID_0Corel-Layer"/>
  <path class="fil0" d="M1.16218 0.347189l0.00137795 0.00318898c0.00108661,0.00229134 0.00209449,0.00462205 0.00302362,0.00699606l0.171339 0.396295 0.421693 0.0397244 0.000149606 0.000440945 0.00179134 -2.3622e-005c0.0607795,0 0.110055,0.0492717 0.110055,0.110055 0,0.0362835 -0.017563,0.0684646 -0.0446496,0.0885118l0.00046063 0.0013622 -0.319913 0.281862 0.0902165 0.402972 -0.00131102 0.00107087c0.00695669,0.014437 0.0108583,0.0306299 0.0108583,0.0477283 0,0.0607795 -0.0492717,0.110055 -0.110055,0.110055 -0.0249843,0 -0.0480236,-0.00833071 -0.0664961,-0.0223622l-0.000299213 0.000244094 -0.36689 -0.217146 -0.367126 0.21728 -0.00152362 -0.0011063c-0.0182008,0.0133268 -0.0406457,0.0211969 -0.0649331,0.0211969 -0.0607835,0 -0.110059,-0.0492717 -0.110059,-0.110055 0,-0.0149646 0.00299606,-0.0292283 0.00840551,-0.0422362l0.091252 -0.407642 -0.321024 -0.282843 0.000377953 -0.00123622c-0.0255157,-0.0201575 -0.0418937,-0.051374 -0.0418937,-0.0864134 0,-0.0579685 0.0448268,-0.105472 0.101705,-0.10974l0.000362205 -0.00118898 0.430063 -0.0405118 0.172618 -0.399256 0.00101181 -3.54331e-005c0.0167638,-0.0393701 0.0558031,-0.0669685 0.101295,-0.0669685 0.0426693,0 0.0796693,0.0242913 0.0979291,0.0597874l0.000188976 -7.87402e-006z"/>
 </g>
</svg>
